TITLE ""
FILE "Disc4Track26.mp3" MP3
  TRACK 01 AUDIO
    TITLE "Disc4Track26_01"
    INDEX 01 00:00:00
  TRACK 02 AUDIO
    TITLE "Disc4Track26_02"
    INDEX 01 00:01:14
  TRACK 03 AUDIO
    TITLE "Disc4Track26_03"
    INDEX 01 00:02:44
  TRACK 04 AUDIO
    TITLE "Disc4Track26_04"
    INDEX 01 00:03:67
  TRACK 05 AUDIO
    TITLE "Disc4Track26_05"
    INDEX 01 00:08:65
  TRACK 06 AUDIO
    TITLE "Disc4Track26_06"
    INDEX 01 00:09:27
  TRACK 07 AUDIO
    TITLE "Disc4Track26_07"
    INDEX 01 00:10:67
  TRACK 08 AUDIO
    TITLE "Disc4Track26_08"
    INDEX 01 00:12:04
  TRACK 09 AUDIO
    TITLE "Disc4Track26_09"
    INDEX 01 00:13:44
  TRACK 10 AUDIO
    TITLE "Disc4Track26_10"
    INDEX 01 00:14:08
  TRACK 11 AUDIO
    TITLE "Disc4Track26_11"
    INDEX 01 00:15:41
  TRACK 12 AUDIO
    TITLE "Disc4Track26_12"
    INDEX 01 00:17:05
  TRACK 13 AUDIO
    TITLE "Disc4Track26_13"
    INDEX 01 00:18:40
  TRACK 14 AUDIO
    TITLE "Disc4Track26_14"
    INDEX 01 00:19:06
  TRACK 15 AUDIO
    TITLE "Disc4Track26_15"
    INDEX 01 00:20:31
  TRACK 16 AUDIO
    TITLE "Disc4Track26_16"
    INDEX 01 00:21:59
  TRACK 17 AUDIO
    TITLE "Disc4Track26_17"
    INDEX 01 00:23:09
  TRACK 18 AUDIO
    TITLE "Disc4Track26_18"
    INDEX 01 00:23:49
  TRACK 19 AUDIO
    TITLE "Disc4Track26_19"
    INDEX 01 00:24:75
  TRACK 20 AUDIO
    TITLE "Disc4Track26_20"
    INDEX 01 00:26:16
  TRACK 21 AUDIO
    TITLE "Disc4Track26_21"
    INDEX 01 00:27:39
  TRACK 22 AUDIO
    TITLE "Disc4Track26_22"
    INDEX 01 00:30:04
  TRACK 23 AUDIO
    TITLE "Disc4Track26_23"
    INDEX 01 00:30:47
  TRACK 24 AUDIO
    TITLE "Disc4Track26_24"
    INDEX 01 00:32:06
  TRACK 25 AUDIO
    TITLE "Disc4Track26_25"
    INDEX 01 00:33:35
  TRACK 26 AUDIO
    TITLE "Disc4Track26_26"
    INDEX 01 00:34:70
  TRACK 27 AUDIO
    TITLE "Disc4Track26_27"
    INDEX 01 00:35:30
  TRACK 28 AUDIO
    TITLE "Disc4Track26_28"
    INDEX 01 00:36:57
  TRACK 29 AUDIO
    TITLE "Disc4Track26_29"
    INDEX 01 00:38:03
  TRACK 30 AUDIO
    TITLE "Disc4Track26_30"
    INDEX 01 00:39:32
  TRACK 31 AUDIO
    TITLE "Disc4Track26_31"
    INDEX 01 00:39:67
  TRACK 32 AUDIO
    TITLE "Disc4Track26_32"
    INDEX 01 00:41:07
  TRACK 33 AUDIO
    TITLE "Disc4Track26_33"
    INDEX 01 00:42:05
  TRACK 34 AUDIO
    TITLE "Disc4Track26_34"
    INDEX 01 00:43:22
  TRACK 35 AUDIO
    TITLE "Disc4Track26_35"
    INDEX 01 00:43:61
  TRACK 36 AUDIO
    TITLE "Disc4Track26_36"
    INDEX 01 00:45:34
  TRACK 37 AUDIO
    TITLE "Disc4Track26_37"
    INDEX 01 00:47:71
  TRACK 38 AUDIO
    TITLE "Disc4Track26_38"
    INDEX 01 00:49:46
  TRACK 39 AUDIO
    TITLE "Disc4Track26_39"
    INDEX 01 00:50:10
  TRACK 40 AUDIO
    TITLE "Disc4Track26_40"
    INDEX 01 00:51:49
  TRACK 41 AUDIO
    TITLE "Disc4Track26_41"
    INDEX 01 00:52:52
  TRACK 42 AUDIO
    TITLE "Disc4Track26_42"
    INDEX 01 00:54:14
  TRACK 43 AUDIO
    TITLE "Disc4Track26_43"
    INDEX 01 00:54:55
  TRACK 44 AUDIO
    TITLE "Disc4Track26_44"
    INDEX 01 00:56:13
  TRACK 45 AUDIO
    TITLE "Disc4Track26_45"
    INDEX 01 00:57:10
  TRACK 46 AUDIO
    TITLE "Disc4Track26_46"
    INDEX 01 00:58:45
  TRACK 47 AUDIO
    TITLE "Disc4Track26_47"
    INDEX 01 00:59:01
  TRACK 48 AUDIO
    TITLE "Disc4Track26_48"
    INDEX 01 01:00:44
  TRACK 49 AUDIO
    TITLE "Disc4Track26_49"
    INDEX 01 01:02:62
  TRACK 50 AUDIO
    TITLE "Disc4Track26_50"
    INDEX 01 01:04:30
  TRACK 51 AUDIO
    TITLE "Disc4Track26_51"
    INDEX 01 01:04:67
  TRACK 52 AUDIO
    TITLE "Disc4Track26_52"
    INDEX 01 01:06:31
  TRACK 53 AUDIO
    TITLE "Disc4Track26_53"
    INDEX 01 01:08:65
  TRACK 54 AUDIO
    TITLE "Disc4Track26_54"
    INDEX 01 01:10:31
  TRACK 55 AUDIO
    TITLE "Disc4Track26_55"
    INDEX 01 01:10:66
  TRACK 56 AUDIO
    TITLE "Disc4Track26_56"
    INDEX 01 01:12:22
  TRACK 57 AUDIO
    TITLE "Disc4Track26_57"
    INDEX 01 01:13:29
  TRACK 58 AUDIO
    TITLE "Disc4Track26_58"
    INDEX 01 01:14:62
